{"title":"Straw Dogs 2011 BRRIP XVID - SCR0N","uid":6858907,"size":1460725264,"categoryP":"video","categoryS":"movies","magnet":"?xt=urn:btih:0f01aedd9b7ba4809081db84040cea6f3fed0a1f&amp;dn=Straw+Dogs+2011+BRRIP+XVID+-+SCR0N&amp;tr=udp%3A%2F%2Ftracker.openbittorrent.com%3A80&amp;tr=udp%3A%2F%2Fopen.demonii.com%3A1337&amp;tr=udp%3A%2F%2Ftracker.coppersurfer.tk%3A6969&amp;tr=udp%3A%2F%2Fexodus.desync.com%3A6969","seeders":0,"leechers":1,"uploader":"TvTeam","files":52,"time":1322811555,"description":".\n &lt;a href=&quot;\nhttp://www.torrenting.com&quot; rel=&quot;nofollow&quot; target=&quot;_NEW&quot;&gt;\nhttp://www.torrenting.com&lt;/a&gt;          :     Once &amp; For all ;)\n\n\n               www . Torrenting . Com \n\n(((((((((((((= Enjoy No RAR releases =))))))))))))))))))))\n\n\n...................................NFO:....................................\n\n.General\nComplete name                    : Straw Dogs 2011 BRRIP XVID - SCR0N.avi\nFormat                           : AVI\nFormat/Info                      : Audio Video Interleave\nFormat profile                   : OpenDML\nFormat settings                  : rec\nFile size                        : 692 MiB\nDuration                         : 1h 49mn\nOverall bit rate                 : 881 Kbps\n\n\nVideo\nID                               : 0\nFormat                           : MPEG-4 Visual\nFormat profile                   : Advanced Simple@L5\nFormat settings, BVOP            : 2\nFormat settings, QPel            : No\nFormat settings, GMC             : No warppoints\nFormat settings, Matrix          : Default (H.263)\nCodec ID                         : XVID\nCodec ID/Hint                    : XviD\nDuration                         : 1h 49mn\nBit rate                         : 686 Kbps\nWidth                            : 720 pixels\nHeight                           : 304 pixels\nDisplay aspect ratio             : 2.35:1\nFrame rate                       : 23.976 fps\nColor space                      : YUV\nChroma subsampling               : 4:2:0\nBit depth                        : 8 bits\nScan type                        : Progressive\nCompression mode                 : Lossy\nBits/(Pixel*Frame)               : 0.131\nStream size                      : 538 MiB (78%)\n\n\nAudio\nID                               : 1\nFormat                           : MPEG Audio\nFormat version                   : Version 1\nFormat profile                   : Layer 3\nMode                             : Joint stereo\nMode extension                   : MS Stereo\nCodec ID                         : 55\nCodec ID/Hint                    : MP3\nDuration                         : 1h 49mn\nBit rate mode                    : Constant\nBit rate                         : 192 Kbps\nChannel(s)                       : 2 channels\nSampling rate                    : 48.0 KHz\nCompression mode                 : Lossy\nStream size                      : 151 MiB (22%)\nAlignment                        : Aligned on interleaves\nInterleave, duration             : 924 ms (22.15 video frames)\nInterleave, preload duration     : 216 ms","torrent":{"xt":"urn:btih:0f01aedd9b7ba4809081db84040cea6f3fed0a1f","amp;dn":"Straw+Dogs+2011+BRRIP+XVID+-+SCR0N","amp;tr":["udp%3A%2F%2Ftracker.openbittorrent.com%3A80","udp%3A%2F%2Fopen.demonii.com%3A1337","udp%3A%2F%2Ftracker.coppersurfer.tk%3A6969","udp%3A%2F%2Fexodus.desync.com%3A6969"],"infoHash":"0f01aedd9b7ba4809081db84040cea6f3fed0a1f","infoHashBuffer":{"type":"Buffer","data":[15,1,174,221,155,123,164,128,144,129,219,132,4,12,234,111,63,237,10,31]},"announce":[],"urlList":[]}}